<svg xmlns="http://www.w3.org/2000/svg" width="408.5" height="301.90827473">
  <circle cx="44" cy="44" r="44" fill="#e29bb5"/>
  <path fill="#e29bb5" d="M132.10511777 108.60254038a44 44 210 0 0-76.21023554 44l73.5 127.30573435a44 44 30 0 0 76.21023554-44z"/>
  <path fill="#70c5a0" d="M279.10511777 108.60254038a44 44 210 0 0-76.21023554 44l73.5 127.30573435a44 44 30 0 0 76.21023554-44z"/>
  <path fill="#70c5a0" d="M276.39488223 235.90827473a44 44 330 0 0 76.21023554 44l50-86.60254037a44 44 150 0 0-76.21023554-44z"/>
  <path fill="#2d4a5c" d="M154.79829408 191.90827473a44 44 0 0 1-76.21023554 0l50.8068237 88a44 44 0 0 0 76.21023553 0l53.00611676-91.80928734A44 44 0 0 1 314.5 169.9082747l-35.39488223-61.30573435a44 44 0 0 0-76.21023554 0z"/>
</svg>
