<?xml version="1.0" standalone="no"?>
<!DOCTYPE svg PUBLIC "-//W3C//DTD SVG 20010904//EN"
 "http://www.w3.org/TR/2001/REC-SVG-20010904/DTD/svg10.dtd">
<svg version="1.0" xmlns="http://www.w3.org/2000/svg"
 width="818.000000pt" height="818.000000pt" viewBox="0 0 818.000000 818.000000"
 preserveAspectRatio="xMidYMid meet">
<metadata>
Created by potrace 1.11, written by Peter Selinger 2001-2013
</metadata>
<g transform="translate(0.000000,818.000000) scale(0.100000,-0.100000)"
fill="#000000" stroke="none">
<path d="M747 7100 c-15 -5 -42 -11 -60 -13 -162 -23 -389 -169 -508 -327 -33
-43 -40 -55 -78 -124 -18 -32 -64 -143 -67 -161 -1 -5 -9 -43 -17 -84 -25
-117 -11 -357 24 -423 5 -10 9 -22 9 -28 0 -19 54 -127 97 -194 41 -64 194
-226 213 -226 5 0 15 -6 23 -14 23 -24 148 -87 217 -111 78 -26 135 -36 247
-41 119 -5 246 15 338 51 34 14 67 25 73 25 7 0 12 5 12 10 0 6 6 10 13 10 25
0 163 100 223 162 34 35 80 90 102 124 40 58 102 179 106 206 1 7 4 18 8 23 3
6 9 24 12 40 3 17 9 41 12 55 18 89 18 252 -1 338 -22 96 -28 117 -38 130 -5
6 -7 12 -4 12 11 0 -76 164 -113 214 -47 63 -214 215 -237 216 -6 0 -13 4 -15
8 -9 23 -213 105 -295 118 -62 10 -266 13 -296 4z"/>
<path d="M1744 5364 c-38 -6 -81 -15 -95 -20 -13 -4 -26 -9 -29 -9 -50 -13
-77 -24 -138 -56 -41 -21 -92 -52 -115 -69 -81 -60 -207 -192 -207 -219 0 -6
-4 -11 -8 -11 -12 0 -77 -127 -100 -195 -53 -157 -62 -330 -27 -482 3 -13 7
-31 9 -42 8 -33 58 -154 84 -201 14 -25 34 -61 45 -80 10 -19 34 -60 52 -90
18 -30 65 -111 104 -180 40 -69 76 -132 81 -140 11 -18 66 -113 90 -155 10
-16 67 -117 129 -223 61 -106 111 -197 111 -202 0 -6 3 -10 8 -10 4 0 12 -10
18 -23 15 -33 58 -111 64 -117 7 -7 25 -37 56 -95 14 -27 34 -61 44 -75 10
-14 21 -35 24 -47 4 -13 12 -23 17 -23 5 0 9 -4 9 -9 0 -8 94 -172 376 -659
68 -117 124 -217 124 -223 0 -5 4 -9 9 -9 5 0 11 -8 14 -17 4 -10 20 -40 37
-68 17 -27 33 -57 37 -65 34 -77 164 -232 248 -295 22 -17 42 -32 45 -35 17
-17 178 -96 215 -106 6 -1 37 -10 70 -19 68 -20 301 -29 356 -15 19 5 54 14
79 20 99 26 245 95 288 137 7 7 17 13 21 13 10 0 110 98 154 151 19 25 72 107
116 184 45 77 86 147 91 155 5 8 22 38 38 65 43 75 65 114 149 258 42 73 100
173 128 222 209 362 255 440 262 439 4 -1 13 -10 18 -20 6 -11 22 -39 36 -64
65 -112 249 -428 267 -460 11 -19 52 -91 91 -158 39 -68 71 -128 71 -133 0 -5
4 -9 9 -9 5 0 11 -8 14 -17 4 -10 17 -37 31 -59 13 -23 56 -97 95 -165 39 -68
75 -129 79 -135 34 -52 52 -76 91 -124 25 -30 56 -63 69 -73 12 -10 28 -24 35
-31 20 -20 129 -92 173 -114 200 -101 451 -117 679 -44 49 16 150 64 153 73 2
5 9 9 14 9 34 0 186 138 257 232 38 52 53 77 114 188 16 30 36 62 43 71 8 8
14 18 14 21 0 4 19 39 43 80 24 40 55 93 69 118 14 25 107 186 207 358 99 172
191 332 205 355 39 70 196 341 206 357 8 14 136 237 181 318 10 17 16 32 13
32 -4 0 0 10 8 23 12 18 27 60 29 82 0 2 5 19 10 37 32 108 32 313 0 432 -54
204 -212 423 -374 518 -52 30 -188 94 -212 98 -3 1 -19 6 -37 11 -18 5 -49 12
-68 15 -19 3 -46 7 -60 10 -28 5 -164 5 -195 0 -11 -1 -45 -6 -75 -10 -30 -5
-59 -11 -65 -14 -5 -4 -12 -7 -15 -7 -3 -1 -16 -4 -30 -9 -24 -7 -43 -15 -100
-40 -38 -17 -124 -68 -135 -81 -5 -6 -21 -18 -34 -28 -63 -43 -217 -220 -211
-243 1 -4 -2 -10 -7 -13 -12 -8 -93 -150 -93 -162 0 -5 -3 -9 -8 -9 -4 0 -13
-15 -21 -32 -8 -18 -19 -40 -26 -48 -7 -8 -27 -43 -46 -78 -18 -34 -37 -61
-42 -59 -5 1 -21 25 -36 52 -44 80 -56 100 -61 105 -3 3 -15 23 -26 45 -12 22
-54 96 -94 165 -40 69 -81 140 -91 158 -21 36 -178 307 -239 412 -21 36 -64
110 -96 165 -33 55 -61 105 -63 110 -7 17 -64 99 -91 129 -180 205 -419 314
-680 310 -63 -1 -126 -5 -140 -8 -101 -23 -134 -33 -200 -61 -198 -84 -323
-202 -453 -430 -28 -49 -54 -91 -59 -93 -4 -2 -8 -11 -8 -21 0 -9 -8 -26 -17
-37 -10 -11 -31 -44 -47 -74 -16 -30 -36 -63 -44 -72 -8 -10 -11 -18 -7 -18 4
0 1 -8 -7 -17 -8 -10 -30 -45 -49 -78 -19 -33 -38 -68 -44 -77 -11 -18 -35
-59 -56 -98 -8 -14 -48 -83 -89 -153 -41 -71 -84 -145 -96 -165 -35 -63 -65
-114 -106 -186 l-40 -68 -24 28 c-13 16 -23 32 -24 36 0 3 -27 52 -60 108 -33
56 -60 103 -60 105 0 2 -27 49 -60 104 -33 56 -60 106 -60 111 0 6 -4 10 -8
10 -5 0 -14 16 -22 35 -8 19 -17 35 -21 35 -4 0 -9 8 -12 18 -4 9 -18 37 -33
62 -135 229 -204 351 -204 360 0 5 -4 10 -10 10 -5 0 -10 5 -10 11 0 12 -47
93 -127 217 -48 75 -180 222 -199 222 -4 0 -17 9 -28 19 -42 39 -210 121 -281
137 -131 30 -262 37 -371 18z"/>
</g>
</svg>
