<?xml version="1.0" encoding="UTF-8" standalone="no"?>
<svg
   width="1000"
   height="27000"
   viewBox="0 0 999.99999 27000"
   id="svg2"
   version="1.1"
   inkscape:version="1.3.2 (091e20e, 2023-11-25)"
   sodipodi:docname="nav-icon-sprite.svg"
   xml:space="preserve"
   xmlns:inkscape="http://www.inkscape.org/namespaces/inkscape"
   xmlns:sodipodi="http://sodipodi.sourceforge.net/DTD/sodipodi-0.dtd"
   xmlns="http://www.w3.org/2000/svg"
   xmlns:svg="http://www.w3.org/2000/svg"
   xmlns:rdf="http://www.w3.org/1999/02/22-rdf-syntax-ns#"
   xmlns:cc="http://creativecommons.org/ns#"
   xmlns:dc="http://purl.org/dc/elements/1.1/"><metadata
     id="metadata10"><rdf:RDF><cc:Work
         rdf:about=""><dc:format>image/svg+xml</dc:format><dc:type
           rdf:resource="http://purl.org/dc/dcmitype/StillImage" /></cc:Work></rdf:RDF></metadata><defs
     id="defs8" /><sodipodi:namedview
     pagecolor="#ffffff"
     bordercolor="#666666"
     borderopacity="1"
     objecttolerance="10"
     gridtolerance="10"
     guidetolerance="10"
     inkscape:pageopacity="0"
     inkscape:pageshadow="2"
     inkscape:window-width="1920"
     inkscape:window-height="1027"
     id="namedview6"
     showgrid="true"
     showborder="false"
     inkscape:showpageshadow="false"
     inkscape:snap-bbox="true"
     inkscape:snap-grids="true"
     inkscape:bbox-nodes="true"
     inkscape:zoom="0.0625"
     inkscape:cx="-4344"
     inkscape:cy="22944"
     inkscape:window-x="0"
     inkscape:window-y="25"
     inkscape:window-maximized="1"
     inkscape:current-layer="svg2"
     fit-margin-top="0"
     fit-margin-left="0"
     fit-margin-right="0"
     fit-margin-bottom="0"
     showguides="true"
     inkscape:guide-bbox="true"
     inkscape:pagecheckerboard="0"
     inkscape:deskcolor="#d1d1d1"><inkscape:grid
       type="xygrid"
       id="grid4138"
       spacingx="999.99999"
       spacingy="1000"
       empspacing="2"
       originx="-3000"
       originy="15000"
       units="px"
       visible="true" /><sodipodi:guide
       position="500,19000"
       orientation="-1,0"
       id="guide4"
       inkscape:label=""
       inkscape:locked="false"
       inkscape:color="rgb(0,134,229)" /><sodipodi:guide
       position="500.00006,18500"
       orientation="0,1"
       id="guide5"
       inkscape:locked="false"
       inkscape:label=""
       inkscape:color="rgb(0,134,229)" /><sodipodi:guide
       position="500,16500"
       orientation="0,1"
       id="guide6"
       inkscape:locked="false"
       inkscape:label=""
       inkscape:color="rgb(0,134,229)" /><sodipodi:guide
       position="500,14500"
       orientation="0,1"
       id="guide7"
       inkscape:locked="false"
       inkscape:label=""
       inkscape:color="rgb(0,134,229)" /><sodipodi:guide
       position="500,12500"
       orientation="0,1"
       id="guide8"
       inkscape:locked="false"
       inkscape:label=""
       inkscape:color="rgb(0,134,229)" /><sodipodi:guide
       position="500,10500"
       orientation="0,1"
       id="guide9"
       inkscape:locked="false"
       inkscape:label=""
       inkscape:color="rgb(0,134,229)" /><sodipodi:guide
       position="500,8500"
       orientation="0,1"
       id="guide10"
       inkscape:locked="false"
       inkscape:label=""
       inkscape:color="rgb(0,134,229)" /><sodipodi:guide
       position="500,6500"
       orientation="0,1"
       id="guide11"
       inkscape:locked="false"
       inkscape:label=""
       inkscape:color="rgb(0,134,229)" /><sodipodi:guide
       position="500,4500"
       orientation="0,1"
       id="guide12"
       inkscape:locked="false"
       inkscape:label=""
       inkscape:color="rgb(0,134,229)" /><sodipodi:guide
       position="500,2500"
       orientation="0,1"
       id="guide13"
       inkscape:locked="false"
       inkscape:label=""
       inkscape:color="rgb(0,134,229)" /><sodipodi:guide
       position="500,500"
       orientation="0,1"
       id="guide14"
       inkscape:locked="false"
       inkscape:label=""
       inkscape:color="rgb(0,134,229)" /><sodipodi:guide
       position="500,2500"
       orientation="0,1"
       id="guide15"
       inkscape:locked="false"
       inkscape:label=""
       inkscape:color="rgb(0,134,229)" /><sodipodi:guide
       position="500,500"
       orientation="0,1"
       id="guide16"
       inkscape:locked="false"
       inkscape:label=""
       inkscape:color="rgb(0,134,229)" /></sodipodi:namedview><g
     id="g8273"
     transform="matrix(0.51834197,0,0,0.51834197,-10217.557,-11992.323)"><circle
       id="circle7692"
       style="fill:#f58c7b;fill-opacity:1"
       r="207.82491"
       cy="27453.824"
       cx="19919.824" /><path
       id="path7694"
       style="fill:#f58c7b;fill-opacity:1"
       d="m 20335.971,27758.96 a 207.82491,207.82491 0 1 0 -359.963,207.825 l 347.163,601.303 a 207.82491,207.82491 0 0 0 359.962,-207.825 z"
       inkscape:connector-curvature="0" /><path
       id="path7696"
       style="fill:#96c2d9;fill-opacity:1"
       d="m 21030.295,27758.96 a 207.82491,207.82491 0 0 0 -359.962,207.825 l 347.162,601.303 a 207.82491,207.82491 0 0 0 359.962,-207.825 z"
       inkscape:connector-curvature="0" /><path
       id="path7698"
       style="fill:#96c2d9;fill-opacity:1"
       d="m 21017.495,28360.263 a 207.82491,207.82491 0 0 0 359.962,207.825 l 236.164,-409.051 a 207.82491,207.82491 0 0 0 -359.962,-207.825 z"
       inkscape:connector-curvature="0" /><path
       id="path7700"
       style="fill:#2d4a5c"
       d="m 20443.156,28152.439 a 207.8249,207.8249 0 0 1 -359.962,0 l 239.977,415.649 a 207.8249,207.8249 0 0 0 359.962,0 l 250.363,-433.641 a 207.8249,207.8249 0 0 1 263.98,-85.921 l -167.181,-289.566 a 207.8249,207.8249 0 0 0 -359.962,0 z"
       inkscape:connector-curvature="0" /></g><g
     transform="matrix(0.51834197,0,0,0.51834197,-10217.557,-13992.323)"
     id="g8282"><circle
       cx="19919.824"
       cy="27453.824"
       r="207.82491"
       style="fill:#e29bb5"
       id="circle8284" /><path
       inkscape:connector-curvature="0"
       d="m 20335.971,27758.96 a 207.82491,207.82491 0 1 0 -359.963,207.825 l 347.163,601.303 a 207.82491,207.82491 0 0 0 359.962,-207.825 z"
       style="fill:#e29bb5"
       id="path8286" /><path
       inkscape:connector-curvature="0"
       d="m 21030.295,27758.96 a 207.82491,207.82491 0 0 0 -359.962,207.825 l 347.162,601.303 a 207.82491,207.82491 0 0 0 359.962,-207.825 z"
       style="fill:#70c5a0"
       id="path8288" /><path
       inkscape:connector-curvature="0"
       d="m 21017.495,28360.263 a 207.82491,207.82491 0 0 0 359.962,207.825 l 236.164,-409.051 a 207.82491,207.82491 0 0 0 -359.962,-207.825 z"
       style="fill:#70c5a0"
       id="path8290" /><path
       inkscape:connector-curvature="0"
       d="m 20443.156,28152.439 a 207.8249,207.8249 0 0 1 -359.962,0 l 239.977,415.649 a 207.8249,207.8249 0 0 0 359.962,0 l 250.363,-433.641 a 207.8249,207.8249 0 0 1 263.98,-85.921 l -167.181,-289.566 a 207.8249,207.8249 0 0 0 -359.962,0 z"
       style="fill:#2d4a5c"
       id="path8292" /></g><path
     d="m 915.36857,4499.206 c 0,25.9809 -21.6508,46.3326 -46.1883,46.3326 H 822.9921 l 1.01037,231.2298 c 0,3.8972 -0.2887,7.7943 -0.7217,11.6914 v 23.3828 c 0,31.8988 -25.83654,57.7353 -57.73529,57.7353 h -23.09412 c -1.58772,0 -3.17544,0 -4.76316,-0.1443 -2.02073,0.1443 -4.04147,0.1443 -6.0622,0.1443 l -46.90992,-0.1443 h -34.64117 c -31.89875,0 -57.73529,-25.8366 -57.73529,-57.7353 v -34.6412 -92.3765 c 0,-25.5478 -20.64037,-46.1882 -46.18823,-46.1882 h -92.37646 c -25.54786,0 -46.18823,20.6404 -46.18823,46.1882 v 92.3765 34.6412 c 0,31.8987 -25.83654,57.7353 -57.73528,57.7353 h -34.64117 -46.04389 c -2.16508,0 -4.33015,-0.1444 -6.49522,-0.2887 -1.73206,0.1443 -3.46412,0.2887 -5.19618,0.2887 h -23.09411 c -31.89875,0 -57.73529,-25.8366 -57.73529,-57.7353 v -161.6588 c 0,-1.2991 0,-2.7425 0.14434,-4.0415 v -100.6037 h -46.18823 c -25.98088,0 -46.188215,-20.2074 -46.188215,-46.3326 0,-12.9904 4.33015,-24.5375 14.43382,-34.6412 L 468.78611,4141.969 c 10.10367,-10.1037 21.65073,-11.5471 31.7544,-11.5471 10.10368,0 21.65074,2.8868 30.31103,10.1037 l 368.63983,324.0393 c 11.547,10.1036 17.3206,21.6507 15.8772,34.6411 z"
     id="path1"
     style="fill:#054a5c;fill-opacity:1;stroke-width:1.44338" /><path
     d="m 915.36856,6499.206 c 0,25.9809 -21.6508,46.3326 -46.1883,46.3326 h -46.1882 l 1.0104,231.2298 c 0,3.8972 -0.2887,7.7943 -0.7217,11.6914 v 23.3828 c 0,31.8988 -25.8366,57.7353 -57.7353,57.7353 h -23.0941 c -1.5878,0 -3.1755,0 -4.7632,-0.1443 -2.0207,0.1443 -4.0415,0.1443 -6.0622,0.1443 l -46.9099,-0.1443 h -34.6412 c -31.8987,0 -57.7353,-25.8366 -57.7353,-57.7353 v -34.6412 -92.3765 c 0,-25.5478 -20.6404,-46.1882 -46.1882,-46.1882 h -92.3765 c -25.5478,0 -46.1882,20.6404 -46.1882,46.1882 v 92.3765 34.6412 c 0,31.8987 -25.8365,57.7353 -57.7353,57.7353 h -34.6412 -46.0438 c -2.1651,0 -4.3302,-0.1444 -6.4953,-0.2887 -1.732,0.1443 -3.4641,0.2887 -5.1961,0.2887 h -23.0942 c -31.8987,0 -57.7352,-25.8366 -57.7352,-57.7353 v -161.6588 c 0,-1.2991 0,-2.7425 0.1443,-4.0415 v -100.6037 h -46.1882 c -25.9809,0 -46.188195,-20.2074 -46.188195,-46.3326 0,-12.9904 4.3301,-24.5375 14.4338,-34.6412 L 468.78606,6141.969 c 10.1037,-10.1037 21.6507,-11.5471 31.7544,-11.5471 10.1037,0 21.6507,2.8868 30.311,10.1037 l 368.6399,324.0393 c 11.547,10.1036 17.3206,21.6507 15.8772,34.6411 z"
     id="path6"
     style="fill:#4fc5a0;fill-opacity:1;stroke-width:1.44338" /><path
     d="m 499.99995,8499.9999 a 184.789,184.789 0 1 0 0,-369.578 184.789,184.789 0 1 0 0,369.578 z m -65.9754,69.2959 c -142.2009,0 -257.4053,115.2044 -257.4053,257.4053 0,23.6761 19.2007,42.8768 42.8768,42.8768 h 561.0079 c 23.6761,0 42.8768,-19.2007 42.8768,-42.8768 0,-142.2009 -115.2044,-257.4053 -257.4053,-257.4053 z"
     id="path1-8"
     style="fill:#2d4a5c;fill-opacity:1;stroke-width:1.44366" /><path
     d="m 499.99995,10500 a 184.789,184.789 0 1 0 0,-369.578 184.789,184.789 0 1 0 0,369.578 z m -65.9754,69.296 c -142.2009,0 -257.4053,115.204 -257.4053,257.405 0,23.676 19.2007,42.877 42.8768,42.877 h 561.0079 c 23.6761,0 42.8768,-19.201 42.8768,-42.877 0,-142.201 -115.2044,-257.405 -257.4053,-257.405 z"
     id="path8"
     style="fill:#4fc5a0;fill-opacity:1;stroke-width:1.44366" /><path
     d="m 368.03725,12341.727 c 0,-58.228 47.3417,-105.57 105.5702,-105.57 h 52.7851 c 58.2285,0 105.5701,47.342 105.5701,105.57 v 5.939 c 0,35.959 -18.3098,69.445 -48.4963,88.744 l -69.6103,44.703 c -41.5682,26.722 -66.6411,72.744 -66.6411,122.065 v 2.31 c 0,29.196 23.5883,52.785 52.785,52.785 29.1968,0 52.7851,-23.589 52.7851,-52.785 v -2.31 c 0,-13.526 6.9281,-26.062 18.1449,-33.32 l 69.6103,-44.703 c 60.3729,-38.929 96.9926,-105.735 96.9926,-177.654 v -5.939 c 0,-116.622 -94.5183,-211.14 -211.1403,-211.14 h -52.7851 c -116.622,0.165 -211.1403,94.683 -211.1403,211.305 0,29.197 23.5883,52.785 52.7851,52.785 29.1967,0 52.785,-23.588 52.785,-52.785 z m 131.9627,527.851 a 65.9815,65.9815 0 1 0 0,-131.963 65.9815,65.9815 0 1 0 0,131.963 z"
     id="path1-83"
     style="fill:#2d4a5c;fill-opacity:1;stroke-width:1.64953" /><path
     d="m 368.03725,14341.727 c 0,-58.228 47.3417,-105.57 105.5702,-105.57 h 52.7851 c 58.2285,0 105.5701,47.342 105.5701,105.57 v 5.939 c 0,35.959 -18.3098,69.445 -48.4963,88.744 l -69.6103,44.703 c -41.5682,26.722 -66.6411,72.744 -66.6411,122.065 v 2.31 c 0,29.196 23.5883,52.785 52.785,52.785 29.1968,0 52.7851,-23.589 52.7851,-52.785 v -2.31 c 0,-13.526 6.9281,-26.062 18.1449,-33.32 l 69.6103,-44.703 c 60.3729,-38.929 96.9926,-105.735 96.9926,-177.654 v -5.939 c 0,-116.622 -94.5183,-211.14 -211.1403,-211.14 h -52.7851 c -116.622,0.165 -211.1403,94.683 -211.1403,211.305 0,29.197 23.5883,52.785 52.7851,52.785 29.1967,0 52.785,-23.588 52.785,-52.785 z m 131.9627,527.851 a 65.9815,65.9815 0 1 0 0,-131.963 65.9815,65.9815 0 1 0 0,131.963 z"
     id="path9"
     style="fill:#70c5a0;fill-opacity:1;stroke-width:1.64953" /><path
     d="m 500,16130.422 a 369.578,369.578 0 1 1 0,739.156 369.578,369.578 0 1 1 0,-739.156 z m -34.6479,173.24 V 16500 c 0,11.549 5.7746,22.377 15.4472,28.873 l 138.5917,92.395 c 15.8803,10.683 37.3909,6.352 48.074,-9.673 10.6831,-16.024 6.3522,-37.391 -9.6725,-48.074 l -123.1446,-82 v -177.859 c 0,-19.201 -15.4472,-34.648 -34.6479,-34.648 -19.2007,0 -34.6479,15.447 -34.6479,34.648 z"
     id="path1-3"
     style="fill:#2d4a5c;fill-opacity:1;stroke-width:1.44366" /><path
     d="m 500,18130.422 a 369.578,369.578 0 1 1 0,739.156 369.578,369.578 0 1 1 0,-739.156 z m -34.6479,173.24 V 18500 c 0,11.549 5.7746,22.377 15.4472,28.873 l 138.5917,92.395 c 15.8803,10.683 37.3909,6.352 48.074,-9.673 10.6831,-16.024 6.3522,-37.391 -9.6725,-48.074 l -123.1446,-82 v -177.859 c 0,-19.201 -15.4472,-34.648 -34.6479,-34.648 -19.2007,0 -34.6479,15.447 -34.6479,34.648 z"
     id="path10"
     style="fill:#70c5a0;fill-opacity:1;stroke-width:1.44366" /><path
     d="m 407.6055,20176.619 c 0,25.553 20.6444,46.198 46.1972,46.198 178.5813,0 323.3808,144.799 323.3808,323.38 0,25.553 20.6444,46.197 46.19725,46.197 25.55285,0 46.19725,-20.644 46.19725,-46.197 0,-229.687 -186.0883,-415.775 -415.7753,-415.775 -25.5528,0 -46.1972,20.644 -46.1972,46.197 z m 0,138.592 c 0,25.553 20.6444,46.197 46.1972,46.197 102.0671,0 184.789,82.722 184.789,184.789 0,25.553 20.6444,46.197 46.1973,46.197 25.5529,0 46.1972,-20.644 46.1972,-46.197 0,-153.028 -124.1551,-277.183 -277.1835,-277.183 -25.5528,0 -46.1972,20.644 -46.1972,46.197 z m -138.5918,23.099 c 0,-38.257 -31.0387,-69.296 -69.2958,-69.296 -38.2571,0 -69.2959,31.039 -69.2959,69.296 v 323.38 c 0,114.772 93.1163,207.888 207.8876,207.888 114.7713,0 207.8876,-93.116 207.8876,-207.888 0,-114.771 -93.1163,-207.887 -207.8876,-207.887 H 315.211 v 138.591 h 23.0986 c 38.2571,0 69.2959,31.039 69.2959,69.296 0,38.257 -31.0388,69.296 -69.2959,69.296 -38.2571,0 -69.2959,-31.039 -69.2959,-69.296 z"
     id="path1-85"
     style="fill:#2d4a5c;fill-opacity:1;stroke-width:1.44366" /><path
     d="m 407.6055,22176.619 c 0,25.553 20.6444,46.198 46.1972,46.198 178.5813,0 323.3808,144.799 323.3808,323.38 0,25.553 20.6444,46.197 46.19725,46.197 25.55285,0 46.19725,-20.644 46.19725,-46.197 0,-229.687 -186.0883,-415.775 -415.7753,-415.775 -25.5528,0 -46.1972,20.644 -46.1972,46.197 z m 0,138.592 c 0,25.553 20.6444,46.197 46.1972,46.197 102.0671,0 184.789,82.722 184.789,184.789 0,25.553 20.6444,46.197 46.1973,46.197 25.5529,0 46.1972,-20.644 46.1972,-46.197 0,-153.028 -124.1551,-277.183 -277.1835,-277.183 -25.5528,0 -46.1972,20.644 -46.1972,46.197 z m -138.5918,23.099 c 0,-38.257 -31.0387,-69.296 -69.2958,-69.296 -38.2571,0 -69.2959,31.039 -69.2959,69.296 v 323.38 c 0,114.772 93.1163,207.888 207.8876,207.888 114.7713,0 207.8876,-93.116 207.8876,-207.888 0,-114.771 -93.1163,-207.887 -207.8876,-207.887 H 315.211 v 138.591 h 23.0986 c 38.2571,0 69.2959,31.039 69.2959,69.296 0,38.257 -31.0388,69.296 -69.2959,69.296 -38.2571,0 -69.2959,-31.039 -69.2959,-69.296 z"
     id="path14"
     style="fill:#70c5a0;fill-opacity:1;stroke-width:1.44366" /><path
     d="m 343.7955,24130.422 c 11.2606,0 20.6444,8.229 24.1092,19.056 17.7571,55.87 70.1621,96.437 132.0953,96.437 61.9332,0 114.3382,-40.567 132.0952,-96.437 3.4648,-10.827 12.8487,-19.056 24.1092,-19.056 h 18.1902 c 32.4824,0 63.81,11.405 88.7853,32.194 l 182.1905,151.729 c 9.5281,7.94 15.4472,19.489 16.4577,31.905 1.0106,12.415 -3.0317,24.686 -11.2606,34.07 l -80.8451,92.395 c -16.4578,18.912 -45.0424,21.077 -64.3875,5.053 l -74.3487,-61.934 v 361.349 c 0,50.962 -41.4331,92.395 -92.3945,92.395 H 361.4082 c -50.9613,0 -92.3945,-41.433 -92.3945,-92.395 v -361.349 l -74.3487,61.934 c -19.2007,16.024 -47.7852,13.859 -64.3874,-5.053 l -80.845196,-92.395 c -8.2289,-9.384 -12.2711,-21.655 -11.2605,-34.07 1.0105,-12.416 6.9295,-23.965 16.4577,-31.905 L 236.82,24162.616 c 24.9754,-20.789 56.3029,-32.194 88.7854,-32.194 z"
     id="path1-5"
     style="fill:#2d4a5c;fill-opacity:1;stroke-width:1.44366" /><path
     d="m 343.7955,26130.422 c 11.2606,0 20.6444,8.229 24.1092,19.056 17.7571,55.87 70.1621,96.437 132.0953,96.437 61.9332,0 114.3382,-40.567 132.0952,-96.437 3.4648,-10.827 12.8487,-19.056 24.1092,-19.056 h 18.1902 c 32.4824,0 63.81,11.405 88.7853,32.194 l 182.1905,151.729 c 9.5281,7.94 15.4472,19.489 16.4577,31.905 1.0106,12.415 -3.0317,24.686 -11.2606,34.07 l -80.8451,92.395 c -16.4578,18.912 -45.0424,21.077 -64.3875,5.053 l -74.3487,-61.934 v 361.349 c 0,50.962 -41.4331,92.395 -92.3945,92.395 H 361.4082 c -50.9613,0 -92.3945,-41.433 -92.3945,-92.395 v -361.349 l -74.3487,61.934 c -19.2007,16.024 -47.7852,13.859 -64.3874,-5.053 l -80.845196,-92.395 c -8.2289,-9.384 -12.2711,-21.655 -11.2605,-34.07 1.0105,-12.416 6.9295,-23.965 16.4577,-31.905 L 236.82,26162.616 c 24.9754,-20.789 56.3029,-32.194 88.7854,-32.194 z"
     id="path16"
     style="fill:#70c5a0;fill-opacity:1;stroke-width:1.44366" /></svg>
