<?xml version="1.0" encoding="UTF-8" standalone="no"?>
<svg
   xmlns:dc="http://purl.org/dc/elements/1.1/"
   xmlns:cc="http://creativecommons.org/ns#"
   xmlns:rdf="http://www.w3.org/1999/02/22-rdf-syntax-ns#"
   xmlns:svg="http://www.w3.org/2000/svg"
   xmlns="http://www.w3.org/2000/svg"
   xmlns:sodipodi="http://sodipodi.sourceforge.net/DTD/sodipodi-0.dtd"
   xmlns:inkscape="http://www.inkscape.org/namespaces/inkscape"
   width="1000"
   height="19000"
   viewBox="0 0 999.99999 19000"
   id="svg2"
   version="1.1"
   inkscape:version="0.91 r13725"
   sodipodi:docname="nav-icon-sprite.svg">
  <metadata
     id="metadata10">
    <rdf:RDF>
      <cc:Work
         rdf:about="">
        <dc:format>image/svg+xml</dc:format>
        <dc:type
           rdf:resource="http://purl.org/dc/dcmitype/StillImage" />
        <dc:title></dc:title>
      </cc:Work>
    </rdf:RDF>
  </metadata>
  <defs
     id="defs8" />
  <sodipodi:namedview
     pagecolor="#ffffff"
     bordercolor="#666666"
     borderopacity="1"
     objecttolerance="10"
     gridtolerance="10"
     guidetolerance="10"
     inkscape:pageopacity="0"
     inkscape:pageshadow="2"
     inkscape:window-width="1440"
     inkscape:window-height="856"
     id="namedview6"
     showgrid="true"
     showborder="false"
     inkscape:showpageshadow="false"
     inkscape:snap-bbox="true"
     inkscape:snap-grids="true"
     inkscape:bbox-nodes="true"
     inkscape:zoom="0.03125"
     inkscape:cx="-782.75145"
     inkscape:cy="9660.4869"
     inkscape:window-x="0"
     inkscape:window-y="0"
     inkscape:window-maximized="0"
     inkscape:current-layer="svg2"
     fit-margin-top="0"
     fit-margin-left="0"
     fit-margin-right="0"
     fit-margin-bottom="0"
     showguides="true"
     inkscape:guide-bbox="true">
    <inkscape:grid
       type="xygrid"
       id="grid4138"
       spacingx="999.99999"
       spacingy="1000"
       empspacing="2"
       originx="-3000"
       originy="11000" />
  </sodipodi:namedview>
  <path
     d="m 831.84244,4556.1713 0,276.5353 q 0,14.979 -10.9461,25.9253 -10.9462,10.9461 -25.9252,10.9461 l -221.22836,0 0,-221.2283 -147.48551,0 0,221.2283 -221.22836,0 q -14.979,0 -25.92516,-10.9461 -10.94616,-10.9463 -10.94616,-25.9253 l 0,-276.5353 q 0,-0.5762 0.28804,-1.7284 0.28805,-1.1523 0.28805,-1.7284 l 331.26631,-273.0786 331.26645,273.0786 q 0.576,1.1523 0.576,3.4568 z m 128.4738,-39.7521 -35.7192,42.6326 q -4.6088,5.1851 -12.0983,6.3373 l -1.7284,0 q -7.4895,0 -12.0984,-4.0328 L 499.99999,4228.9377 101.3282,4561.3563 q -6.913411,4.6089 -13.826811,4.0328 -7.48949,-1.1522 -12.09842,-6.3373 l -35.71913,-42.6326 q -4.60893,-5.7611 -4.03283,-13.5387 0.5761,-7.7775 6.3373,-12.3863 L 456.21527,4145.401 q 18.43566,-14.979 43.78472,-14.979 25.34913,0 43.7848,14.979 l 140.57217,117.5274 0,-112.3424 q 0,-8.0656 5.18496,-13.2507 5.18503,-5.1849 13.25071,-5.1849 l 110.61421,0 q 8.0656,0 13.2507,5.1849 5.1849,5.1851 5.1849,13.2507 l 0,235.0551 126.1693,104.8531 q 5.7611,4.6088 6.3373,12.3863 0.5762,7.7776 -4.0328,13.5387 z"
     id="path4"
     inkscape:connector-curvature="0"
     style="fill:#2d4a5c;fill-opacity:1" />
  <path
     inkscape:connector-curvature="0"
     d="m 584.33752,12707.888 0,138.591 q 0,9.24 -6.92959,16.169 -6.92959,6.93 -16.16904,6.93 l -138.59175,0 q -9.23945,0 -16.16904,-6.93 -6.92958,-6.929 -6.92958,-16.169 l 0,-138.591 q 0,-9.24 6.92958,-16.169 6.92959,-6.93 16.16904,-6.93 l 138.59175,0 q 9.23945,0 16.16904,6.93 6.92959,6.929 6.92959,16.169 z m 182.47912,-346.48 q 0,31.183 -8.9507,58.324 -8.9507,27.141 -20.2113,44.176 -11.2606,17.036 -31.7606,34.359 -20.50008,17.325 -33.20432,25.12 -12.70417,7.796 -35.22537,20.5 -23.67605,13.282 -39.55645,37.535 -15.88025,24.254 -15.88025,38.691 0,9.817 -6.92958,18.768 -6.92959,8.95 -16.16904,8.95 l -138.59175,0 q -8.66202,0 -14.72539,-10.683 -6.06337,-10.683 -6.06337,-21.655 l 0,-25.986 q 0,-47.929 37.53523,-90.373 37.5353,-42.444 82.57762,-62.656 34.07051,-15.591 48.50711,-32.337 14.4366,-16.747 14.4366,-43.887 0,-24.254 -26.85213,-42.733 -26.85213,-18.479 -62.0775,-18.479 -37.5353,0 -62.36636,16.746 -20.21126,14.437 -61.78879,66.409 -7.50709,9.239 -17.90147,9.239 -6.92958,0 -14.4366,-4.619 l -94.70436,-72.183 q -7.50702,-5.775 -8.95074,-14.437 -1.44372,-8.663 3.17601,-16.169 92.3945,-153.606 267.94405,-153.606 46.19732,0 92.972,17.902 46.77475,17.901 84.30998,47.929 37.53527,30.028 61.21137,73.627 23.6761,43.598 23.6761,91.528 z"
     id="path4-3"
     style="fill:#2d4a5c;fill-opacity:1" />
  <path
     inkscape:connector-curvature="0"
     d="m 209.61715,16816.782 118.79316,0 0,-118.793 -118.79316,0 0,118.793 z m 145.1913,0 131.9922,0 0,-118.793 -131.9922,0 0,118.793 z m -145.1913,-145.192 118.79316,0 0,-131.992 -118.79316,0 0,131.992 z m 145.1913,0 131.9922,0 0,-131.992 -131.9922,0 0,131.992 z m -145.1913,-158.39 118.79316,0 0,-118.794 -118.79316,0 0,118.794 z m 303.58216,303.582 131.99227,0 0,-118.793 -131.99227,0 0,118.793 z m -158.39086,-303.582 131.9922,0 0,-118.794 -131.9922,0 0,118.794 z m 316.78127,303.582 118.79312,0 0,-118.793 -118.79312,0 0,118.793 z m -158.39041,-145.192 131.99227,0 0,-131.992 -131.99227,0 0,131.992 z m -145.19123,-356.379 0,-118.793 q 0,-5.362 -3.91871,-9.281 -3.91863,-3.918 -9.28092,-3.918 l -26.39814,0 q -5.36221,0 -9.28092,3.918 -3.91863,3.919 -3.91863,9.281 l 0,118.793 q 0,5.363 3.91863,9.281 3.91871,3.919 9.28092,3.919 l 26.39814,0 q 5.36229,0 9.28092,-3.919 3.91871,-3.918 3.91871,-9.281 z m 303.58164,356.379 118.79312,0 0,-131.992 -118.79312,0 0,131.992 z m -158.39041,-158.39 131.99227,0 0,-118.794 -131.99227,0 0,118.794 z m 158.39041,0 118.79312,0 0,-118.794 -118.79312,0 0,118.794 z m 13.19904,-197.989 0,-118.793 q 0,-5.362 -3.91812,-9.281 -3.91871,-3.918 -9.28092,-3.918 l -26.39814,0 q -5.36228,0 -9.28092,3.918 -3.91871,3.919 -3.91871,9.281 l 0,118.793 q 0,5.363 3.91871,9.281 3.91864,3.919 9.28092,3.919 l 26.39814,0 q 5.36221,0 9.28092,-3.919 3.91812,-3.918 3.91812,-9.281 z m 158.39088,-26.398 0,527.969 q 0,21.448 -15.6742,37.122 -15.6741,15.674 -37.1226,15.674 l -580.76569,0 q -21.44846,0 -37.12263,-15.674 -15.6741,-15.674 -15.6741,-37.122 l 0,-527.969 q 0,-21.449 15.6741,-37.124 15.67417,-15.673 37.12263,-15.673 l 52.7968,0 0,-39.598 q 0,-27.223 19.38651,-46.609 19.38651,-19.387 46.60985,-19.387 l 26.39814,0 q 27.22334,0 46.60985,19.387 19.38651,19.386 19.38651,46.609 l 0,39.598 158.39041,0 0,-39.598 q 0,-27.223 19.38651,-46.609 19.386,-19.387 46.60985,-19.387 l 26.39814,0 q 27.22334,0 46.60982,19.387 19.3865,19.386 19.3865,46.609 l 0,39.598 52.7968,0 q 21.4485,0 37.1226,15.673 15.6742,15.675 15.6742,37.124 z"
     id="path4-5"
     style="fill:#2d4a5c;fill-opacity:1" />
  <path
     style="fill:#70c5a0;fill-opacity:1"
     inkscape:connector-curvature="0"
     id="path4147"
     d="m 831.84244,6556.1714 0,276.5353 q 0,14.979 -10.9461,25.9252 -10.9462,10.9461 -25.9252,10.9461 l -221.22836,0 0,-221.2286 -147.48551,0 0,221.2286 -221.22836,0 q -14.979,0 -25.92516,-10.9461 -10.94624,-10.9462 -10.94624,-25.9252 l 0,-276.5353 q 0,-0.5758 0.28812,-1.7281 0.28805,-1.1524 0.28805,-1.7289 l 331.26631,-273.0783 331.26645,273.0783 q 0.576,1.1524 0.576,3.457 z m 128.4738,-39.7526 -35.7192,42.6331 q -4.6088,5.1852 -12.0983,6.3368 l -1.7284,0 q -7.4895,0 -12.0984,-4.0328 L 499.99999,6228.9374 101.3282,6561.3559 q -6.913411,4.6093 -13.826811,4.0328 -7.48949,-1.1516 -12.09842,-6.3368 l -35.71913,-42.6331 q -4.60893,-5.7609 -4.03283,-13.5384 0.5761,-7.7773 6.3373,-12.386 L 456.21527,6145.401 q 18.43566,-14.979 43.78472,-14.979 25.34913,0 43.7848,14.979 l 140.57217,117.5272 0,-112.342 q 0,-8.0658 5.18496,-13.2509 5.18503,-5.1852 13.25071,-5.1852 l 110.61421,0 q 8.0656,0 13.2507,5.1852 5.1849,5.1851 5.1849,13.2509 l 0,235.0553 126.1693,104.8529 q 5.7611,4.6087 6.3373,12.386 0.5762,7.7775 -4.0328,13.5392 z" />
  <path
     style="fill:#70c5a0;fill-opacity:1"
     id="path4151"
     d="m 584.33752,14707.888 0,138.591 q 0,9.24 -6.92959,16.169 -6.92959,6.93 -16.16904,6.93 l -138.59175,0 q -9.23945,0 -16.16904,-6.93 -6.92958,-6.929 -6.92958,-16.169 l 0,-138.591 q 0,-9.24 6.92958,-16.169 6.92959,-6.93 16.16904,-6.93 l 138.59175,0 q 9.23945,0 16.16904,6.93 6.92959,6.929 6.92959,16.169 z m 182.47912,-346.48 q 0,31.183 -8.9507,58.324 -8.9507,27.141 -20.2113,44.176 -11.2606,17.036 -31.7606,34.359 -20.50008,17.325 -33.20432,25.12 -12.70417,7.796 -35.22537,20.5 -23.67605,13.282 -39.55645,37.535 -15.88025,24.254 -15.88025,38.691 0,9.817 -6.92958,18.768 -6.92959,8.95 -16.16904,8.95 l -138.59175,0 q -8.66202,0 -14.72539,-10.683 -6.06337,-10.683 -6.06337,-21.655 l 0,-25.986 q 0,-47.929 37.53523,-90.373 37.5353,-42.444 82.57762,-62.656 34.07051,-15.591 48.50711,-32.337 14.4366,-16.747 14.4366,-43.887 0,-24.254 -26.85213,-42.733 -26.85213,-18.479 -62.0775,-18.479 -37.5353,0 -62.36636,16.746 -20.21126,14.437 -61.78879,66.409 -7.50709,9.239 -17.90147,9.239 -6.92958,0 -14.4366,-4.619 l -94.70436,-72.183 q -7.50702,-5.775 -8.95074,-14.437 -1.44372,-8.663 3.17601,-16.169 92.3945,-153.606 267.94405,-153.606 46.19732,0 92.972,17.902 46.77475,17.901 84.30998,47.929 37.53527,30.028 61.21137,73.627 23.6761,43.598 23.6761,91.528 z"
     inkscape:connector-curvature="0" />
  <path
     style="fill:#70c5a0;fill-opacity:1"
     id="path4153"
     d="m 209.61722,18816.782 118.79317,0 0,-118.793 -118.79317,0 0,118.793 z m 145.19123,0 131.99227,0 0,-118.793 -131.99227,0 0,118.793 z m -145.19123,-145.192 118.79317,0 0,-131.992 -118.79317,0 0,131.992 z m 145.19123,0 131.99227,0 0,-131.992 -131.99227,0 0,131.992 z m -145.19123,-158.39 118.79317,0 0,-118.794 -118.79317,0 0,118.794 z m 303.58217,303.582 131.99219,0 0,-118.793 -131.99219,0 0,118.793 z m -158.39094,-303.582 131.99227,0 0,-118.794 -131.99227,0 0,118.794 z m 316.78127,303.582 118.79312,0 0,-118.793 -118.79312,0 0,118.793 z m -158.39033,-145.192 131.99219,0 0,-131.992 -131.99219,0 0,131.992 z m -145.19131,-356.379 0,-118.793 q 0,-5.362 -3.91871,-9.281 -3.91863,-3.919 -9.28092,-3.919 l -26.39806,0 q -5.36229,0 -9.28092,3.919 -3.91871,3.919 -3.91871,9.281 l 0,118.793 q 0,5.363 3.91871,9.281 3.91863,3.919 9.28092,3.919 l 26.39806,0 q 5.36229,0 9.28092,-3.919 3.91871,-3.918 3.91871,-9.281 z m 303.58164,356.379 118.79312,0 0,-131.992 -118.79312,0 0,131.992 z m -158.39033,-158.39 131.99219,0 0,-118.794 -131.99219,0 0,118.794 z m 158.39033,0 118.79312,0 0,-118.794 -118.79312,0 0,118.794 z m 13.19904,-197.989 0,-118.793 q 0,-5.362 -3.91812,-9.281 -3.91871,-3.919 -9.28092,-3.919 l -26.39814,0 q -5.36228,0 -9.28092,3.919 -3.91871,3.919 -3.91871,9.281 l 0,118.793 q 0,5.363 3.91871,9.281 3.91864,3.919 9.28092,3.919 l 26.39814,0 q 5.36221,0 9.28092,-3.919 3.91812,-3.918 3.91812,-9.281 z m 158.39088,-26.398 0,527.969 q 0,21.448 -15.6742,37.122 -15.6741,15.674 -37.1226,15.674 l -580.76562,0 q -21.44853,0 -37.12263,-15.674 -15.67417,-15.674 -15.67417,-37.122 l 0,-527.969 q 0,-21.449 15.67417,-37.124 15.6741,-15.673 37.12263,-15.673 l 52.79673,0 0,-39.598 q 0,-27.223 19.38659,-46.609 19.38651,-19.387 46.60985,-19.387 l 26.39806,0 q 27.22334,0 46.60993,19.387 19.38651,19.386 19.38651,46.609 l 0,39.598 158.39033,0 0,-39.598 q 0,-27.223 19.38651,-46.609 19.386,-19.387 46.60985,-19.387 l 26.39814,0 q 27.22334,0 46.60982,19.387 19.3865,19.386 19.3865,46.609 l 0,39.598 52.7968,0 q 21.4485,0 37.1226,15.673 15.6742,15.675 15.6742,37.124 z"
     inkscape:connector-curvature="0" />
  <g
     transform="matrix(2.5488138,0,0,2.5488138,75.656739,8074.3481)"
     style="fill:#2d4a5c;fill-opacity:1;image-rendering:optimizeQuality;shape-rendering:geometricPrecision;text-rendering:geometricPrecision"
     id="g7104">
    <path
       inkscape:connector-curvature="0"
       class="fil0"
       d="m 209,184 c 2,-2 5,-2 7,-1 46,22 72,71 72,121 0,4 -2,8 -6,8 l -230,0 c -4,0 -7,-3 -7,-7 -1,-50 26,-100 72,-122 3,-1 6,-1 7,1 26,20 60,20 85,0 z M 167,22 c 41,0 71,37 71,77 0,40 -30,77 -71,77 -42,0 -72,-37 -72,-77 0,-40 30,-77 72,-77 z"
       id="path7106"
       style="fill:#2d4a5c;fill-opacity:1" />
  </g>
  <g
     id="g7672"
     style="fill:#70c5a0;fill-opacity:1;image-rendering:optimizeQuality;shape-rendering:geometricPrecision;text-rendering:geometricPrecision"
     transform="matrix(2.5488138,0,0,2.5488138,75.656739,10074.348)">
    <path
       id="path7674"
       d="m 209,184 c 2,-2 5,-2 7,-1 46,22 72,71 72,121 0,4 -2,8 -6,8 l -230,0 c -4,0 -7,-3 -7,-7 -1,-50 26,-100 72,-122 3,-1 6,-1 7,1 26,20 60,20 85,0 z M 167,22 c 41,0 71,37 71,77 0,40 -30,77 -71,77 -42,0 -72,-37 -72,-77 0,-40 30,-77 72,-77 z"
       class="fil0"
       inkscape:connector-curvature="0"
       style="fill:#70c5a0;fill-opacity:1" />
  </g>
  <g
     id="g8273"
     transform="matrix(0.51834197,0,0,0.51834197,-10217.557,-11992.323)">
    <circle
       id="circle7692"
       style="fill:#f58c7b;fill-opacity:1"
       r="207.82491"
       cy="27453.824"
       cx="19919.824" />
    <path
       id="path7694"
       style="fill:#f58c7b;fill-opacity:1"
       d="m 20335.971,27758.96 a 207.82491,207.82491 0 1 0 -359.963,207.825 l 347.163,601.303 a 207.82491,207.82491 0 0 0 359.962,-207.825 z"
       inkscape:connector-curvature="0" />
    <path
       id="path7696"
       style="fill:#96c2d9;fill-opacity:1"
       d="m 21030.295,27758.96 a 207.82491,207.82491 0 0 0 -359.962,207.825 l 347.162,601.303 a 207.82491,207.82491 0 0 0 359.962,-207.825 z"
       inkscape:connector-curvature="0" />
    <path
       id="path7698"
       style="fill:#96c2d9;fill-opacity:1"
       d="m 21017.495,28360.263 a 207.82491,207.82491 0 0 0 359.962,207.825 l 236.164,-409.051 a 207.82491,207.82491 0 0 0 -359.962,-207.825 z"
       inkscape:connector-curvature="0" />
    <path
       id="path7700"
       style="fill:#2d4a5c"
       d="m 20443.156,28152.439 a 207.8249,207.8249 0 0 1 -359.962,0 l 239.977,415.649 a 207.8249,207.8249 0 0 0 359.962,0 l 250.363,-433.641 a 207.8249,207.8249 0 0 1 263.98,-85.921 l -167.181,-289.566 a 207.8249,207.8249 0 0 0 -359.962,0 z"
       inkscape:connector-curvature="0" />
  </g>
  <g
     transform="matrix(0.51834197,0,0,0.51834197,-10217.557,-13992.323)"
     id="g8282">
    <circle
       cx="19919.824"
       cy="27453.824"
       r="207.82491"
       style="fill:#e29bb5"
       id="circle8284" />
    <path
       inkscape:connector-curvature="0"
       d="m 20335.971,27758.96 a 207.82491,207.82491 0 1 0 -359.963,207.825 l 347.163,601.303 a 207.82491,207.82491 0 0 0 359.962,-207.825 z"
       style="fill:#e29bb5"
       id="path8286" />
    <path
       inkscape:connector-curvature="0"
       d="m 21030.295,27758.96 a 207.82491,207.82491 0 0 0 -359.962,207.825 l 347.162,601.303 a 207.82491,207.82491 0 0 0 359.962,-207.825 z"
       style="fill:#70c5a0"
       id="path8288" />
    <path
       inkscape:connector-curvature="0"
       d="m 21017.495,28360.263 a 207.82491,207.82491 0 0 0 359.962,207.825 l 236.164,-409.051 a 207.82491,207.82491 0 0 0 -359.962,-207.825 z"
       style="fill:#70c5a0"
       id="path8290" />
    <path
       inkscape:connector-curvature="0"
       d="m 20443.156,28152.439 a 207.8249,207.8249 0 0 1 -359.962,0 l 239.977,415.649 a 207.8249,207.8249 0 0 0 359.962,0 l 250.363,-433.641 a 207.8249,207.8249 0 0 1 263.98,-85.921 l -167.181,-289.566 a 207.8249,207.8249 0 0 0 -359.962,0 z"
       style="fill:#2d4a5c"
       id="path8292" />
  </g>
</svg>
