<svg xmlns="http://www.w3.org/2000/svg" width="1000" height="19000" viewBox="0 0 999.99999 19000"><path d="M831.84244 4556.1713v276.5353q0 14.979-10.9461 25.9253-10.9462 10.9461-25.9252 10.9461H573.74278v-221.2283H426.25727v221.2283H205.02891q-14.979 0-25.92516-10.9461-10.94616-10.9463-10.94616-25.9253v-276.5353q0-.5762.28804-1.7284.28805-1.1523.28805-1.7284l331.26631-273.0786 331.26645 273.0786q.576 1.1523.576 3.4568zm128.4738-39.7521l-35.7192 42.6326q-4.6088 5.1851-12.0983 6.3373h-1.7284q-7.4895 0-12.0984-4.0328l-398.67195-332.4186-398.67179 332.4186q-6.913411 4.6089-13.826811 4.0328-7.48949-1.1522-12.09842-6.3373l-35.71913-42.6326q-4.60893-5.7611-4.03283-13.5387.5761-7.7775 6.3373-12.3863L456.21527 4145.401q18.43566-14.979 43.78472-14.979 25.34913 0 43.7848 14.979l140.57217 117.5274V4150.586q0-8.0656 5.18496-13.2507 5.18503-5.1849 13.25071-5.1849h110.61421q8.0656 0 13.2507 5.1849 5.1849 5.1851 5.1849 13.2507v235.0551l126.1693 104.8531q5.7611 4.6088 6.3373 12.3863.5762 7.7776-4.0328 13.5387zM584.33752 12707.888v138.591q0 9.24-6.92959 16.169-6.92959 6.93-16.16904 6.93H422.64714q-9.23945 0-16.16904-6.93-6.92958-6.929-6.92958-16.169v-138.591q0-9.24 6.92958-16.169 6.92959-6.93 16.16904-6.93h138.59175q9.23945 0 16.16904 6.93 6.92959 6.929 6.92959 16.169zm182.47912-346.48q0 31.183-8.9507 58.324t-20.2113 44.176q-11.2606 17.036-31.7606 34.359-20.50008 17.325-33.20432 25.12-12.70417 7.796-35.22537 20.5-23.67605 13.282-39.55645 37.535-15.88025 24.254-15.88025 38.691 0 9.817-6.92958 18.768-6.92959 8.95-16.16904 8.95H420.33728q-8.66202 0-14.72539-10.683-6.06337-10.683-6.06337-21.655v-25.986q0-47.929 37.53523-90.373 37.5353-42.444 82.57762-62.656 34.07051-15.591 48.50711-32.337 14.4366-16.747 14.4366-43.887 0-24.254-26.85213-42.733-26.85213-18.479-62.0775-18.479-37.5353 0-62.36636 16.746-20.21126 14.437-61.78879 66.409-7.50709 9.239-17.90147 9.239-6.92958 0-14.4366-4.619l-94.70436-72.183q-7.50702-5.775-8.95074-14.437-1.44372-8.663 3.17601-16.169 92.3945-153.606 267.94405-153.606 46.19732 0 92.972 17.902 46.77475 17.901 84.30998 47.929 37.53527 30.028 61.21137 73.627 23.6761 43.598 23.6761 91.528zm-557.19949 4455.374h118.79316v-118.793H209.61715v118.793zm145.1913 0h131.9922v-118.793h-131.9922v118.793zm-145.1913-145.192h118.79316v-131.992H209.61715v131.992zm145.1913 0h131.9922v-131.992h-131.9922v131.992zm-145.1913-158.39h118.79316v-118.794H209.61715v118.794zm303.58216 303.582h131.99227v-118.793H513.19931v118.793zM354.80845 16513.2h131.9922v-118.794h-131.9922v118.794zm316.78127 303.582h118.79312v-118.793H671.58972v118.793zm-158.39041-145.192h131.99227v-131.992H513.19931v131.992zm-145.19123-356.379v-118.793q0-5.362-3.91871-9.281-3.91863-3.918-9.28092-3.918h-26.39814q-5.36221 0-9.28092 3.918-3.91863 3.919-3.91863 9.281v118.793q0 5.363 3.91863 9.281 3.91871 3.919 9.28092 3.919h26.39814q5.36229 0 9.28092-3.919 3.91871-3.918 3.91871-9.281zm303.58164 356.379h118.79312v-131.992H671.58972v131.992zm-158.39041-158.39h131.99227v-118.794H513.19931v118.794zm158.39041 0h118.79312v-118.794H671.58972v118.794zm13.19904-197.989v-118.793q0-5.362-3.91812-9.281-3.91871-3.918-9.28092-3.918h-26.39814q-5.36228 0-9.28092 3.918-3.91871 3.919-3.91871 9.281v118.793q0 5.363 3.91871 9.281 3.91864 3.919 9.28092 3.919h26.39814q5.36221 0 9.28092-3.919 3.91812-3.918 3.91812-9.281zm158.39088-26.398v527.969q0 21.448-15.6742 37.122-15.6741 15.674-37.1226 15.674H209.61715q-21.44846 0-37.12263-15.674-15.6741-15.674-15.6741-37.122v-527.969q0-21.449 15.6741-37.124 15.67417-15.673 37.12263-15.673h52.7968v-39.598q0-27.223 19.38651-46.609 19.38651-19.387 46.60985-19.387h26.39814q27.22334 0 46.60985 19.387 19.38651 19.386 19.38651 46.609v39.598h158.39041v-39.598q0-27.223 19.38651-46.609 19.386-19.387 46.60985-19.387h26.39814q27.22334 0 46.60982 19.387 19.3865 19.386 19.3865 46.609v39.598h52.7968q21.4485 0 37.1226 15.673 15.6742 15.675 15.6742 37.124z" fill="#2d4a5c"/><path d="M831.84244 6556.1714v276.5353q0 14.979-10.9461 25.9252-10.9462 10.9461-25.9252 10.9461H573.74278v-221.2286H426.25727v221.2286H205.02891q-14.979 0-25.92516-10.9461-10.94624-10.9462-10.94624-25.9252v-276.5353q0-.5758.28812-1.7281.28805-1.1524.28805-1.7289l331.26631-273.0783 331.26645 273.0783q.576 1.1524.576 3.457zm128.4738-39.7526l-35.7192 42.6331q-4.6088 5.1852-12.0983 6.3368h-1.7284q-7.4895 0-12.0984-4.0328l-398.67195-332.4185-398.67179 332.4185q-6.913411 4.6093-13.826811 4.0328-7.48949-1.1516-12.09842-6.3368l-35.71913-42.6331q-4.60893-5.7609-4.03283-13.5384.5761-7.7773 6.3373-12.386L456.21527 6145.401q18.43566-14.979 43.78472-14.979 25.34913 0 43.7848 14.979l140.57217 117.5272v-112.342q0-8.0658 5.18496-13.2509 5.18503-5.1852 13.25071-5.1852h110.61421q8.0656 0 13.2507 5.1852 5.1849 5.1851 5.1849 13.2509v235.0553l126.1693 104.8529q5.7611 4.6087 6.3373 12.386.5762 7.7775-4.0328 13.5392zM584.33752 14707.888v138.591q0 9.24-6.92959 16.169-6.92959 6.93-16.16904 6.93H422.64714q-9.23945 0-16.16904-6.93-6.92958-6.929-6.92958-16.169v-138.591q0-9.24 6.92958-16.169 6.92959-6.93 16.16904-6.93h138.59175q9.23945 0 16.16904 6.93 6.92959 6.929 6.92959 16.169zm182.47912-346.48q0 31.183-8.9507 58.324t-20.2113 44.176q-11.2606 17.036-31.7606 34.359-20.50008 17.325-33.20432 25.12-12.70417 7.796-35.22537 20.5-23.67605 13.282-39.55645 37.535-15.88025 24.254-15.88025 38.691 0 9.817-6.92958 18.768-6.92959 8.95-16.16904 8.95H420.33728q-8.66202 0-14.72539-10.683-6.06337-10.683-6.06337-21.655v-25.986q0-47.929 37.53523-90.373 37.5353-42.444 82.57762-62.656 34.07051-15.591 48.50711-32.337 14.4366-16.747 14.4366-43.887 0-24.254-26.85213-42.733-26.85213-18.479-62.0775-18.479-37.5353 0-62.36636 16.746-20.21126 14.437-61.78879 66.409-7.50709 9.239-17.90147 9.239-6.92958 0-14.4366-4.619l-94.70436-72.183q-7.50702-5.775-8.95074-14.437-1.44372-8.663 3.17601-16.169 92.3945-153.606 267.94405-153.606 46.19732 0 92.972 17.902 46.77475 17.901 84.30998 47.929 37.53527 30.028 61.21137 73.627 23.6761 43.598 23.6761 91.528zm-557.19942 4455.374h118.79317v-118.793H209.61722v118.793zm145.19123 0h131.99227v-118.793H354.80845v118.793zm-145.19123-145.192h118.79317v-131.992H209.61722v131.992zm145.19123 0h131.99227v-131.992H354.80845v131.992zm-145.19123-158.39h118.79317v-118.794H209.61722v118.794zm303.58217 303.582h131.99219v-118.793H513.19939v118.793zM354.80845 18513.2h131.99227v-118.794H354.80845v118.794zm316.78127 303.582h118.79312v-118.793H671.58972v118.793zm-158.39033-145.192h131.99219v-131.992H513.19939v131.992zm-145.19131-356.379v-118.793q0-5.362-3.91871-9.281-3.91863-3.919-9.28092-3.919h-26.39806q-5.36229 0-9.28092 3.919-3.91871 3.919-3.91871 9.281v118.793q0 5.363 3.91871 9.281 3.91863 3.919 9.28092 3.919h26.39806q5.36229 0 9.28092-3.919 3.91871-3.918 3.91871-9.281zm303.58164 356.379h118.79312v-131.992H671.58972v131.992zm-158.39033-158.39h131.99219v-118.794H513.19939v118.794zm158.39033 0h118.79312v-118.794H671.58972v118.794zm13.19904-197.989v-118.793q0-5.362-3.91812-9.281-3.91871-3.919-9.28092-3.919h-26.39814q-5.36228 0-9.28092 3.919-3.91871 3.919-3.91871 9.281v118.793q0 5.363 3.91871 9.281 3.91864 3.919 9.28092 3.919h26.39814q5.36221 0 9.28092-3.919 3.91812-3.918 3.91812-9.281zm158.39088-26.398v527.969q0 21.448-15.6742 37.122-15.6741 15.674-37.1226 15.674H209.61722q-21.44853 0-37.12263-15.674-15.67417-15.674-15.67417-37.122v-527.969q0-21.449 15.67417-37.124 15.6741-15.673 37.12263-15.673h52.79673v-39.598q0-27.223 19.38659-46.609 19.38651-19.387 46.60985-19.387h26.39806q27.22334 0 46.60993 19.387 19.38651 19.386 19.38651 46.609v39.598h158.39033v-39.598q0-27.223 19.38651-46.609 19.386-19.387 46.60985-19.387h26.39814q27.22334 0 46.60982 19.387 19.3865 19.386 19.3865 46.609v39.598h52.7968q21.4485 0 37.1226 15.673 15.6742 15.675 15.6742 37.124z" fill="#70c5a0"/><path class="fil0" d="M608.3588232 8543.3298392c5.0976276-5.0976276 12.744069-5.0976276 17.8416966-2.5488138 117.2454348 56.0739036 183.5145936 180.9657798 183.5145936 308.4064698 0 10.1952552-5.0976276 20.3905104-15.2928828 20.3905104h-586.227174c-10.1952552 0-17.8416966-7.6464414-17.8416966-17.8416966-2.5488138-127.44069 66.2691588-254.88138 183.5145936-310.9552836 7.6464414-2.5488138 15.2928828-2.5488138 17.8416966 2.5488138 66.2691588 50.976276 152.928828 50.976276 216.649173 0zm-107.0501796-412.9078356c104.5013658 0 180.9657798 94.3061106 180.9657798 196.2586626 0 101.952552-76.464414 196.2586626-180.9657798 196.2586626-107.0501796 0-183.5145936-94.3061106-183.5145936-196.2586626 0-101.952552 76.464414-196.2586626 183.5145936-196.2586626z" fill="#2d4a5c" image-rendering="optimizeQuality" shape-rendering="geometricPrecision" text-rendering="geometricPrecision"/><path d="M608.3588232 10543.3297392c5.0976276-5.0976276 12.744069-5.0976276 17.8416966-2.5488138 117.2454348 56.0739036 183.5145936 180.9657798 183.5145936 308.4064698 0 10.1952552-5.0976276 20.3905104-15.2928828 20.3905104h-586.227174c-10.1952552 0-17.8416966-7.6464414-17.8416966-17.8416966-2.5488138-127.44069 66.2691588-254.88138 183.5145936-310.9552836 7.6464414-2.5488138 15.2928828-2.5488138 17.8416966 2.5488138 66.2691588 50.976276 152.928828 50.976276 216.649173 0zm-107.0501796-412.9078356c104.5013658 0 180.9657798 94.3061106 180.9657798 196.2586626 0 101.952552-76.464414 196.2586626-180.9657798 196.2586626-107.0501796 0-183.5145936-94.3061106-183.5145936-196.2586626 0-101.952552 76.464414-196.2586626 183.5145936-196.2586626z" class="fil0" fill="#70c5a0" image-rendering="optimizeQuality" shape-rendering="geometricPrecision" text-rendering="geometricPrecision"/><g transform="translate(-10217.557 -11992.323) scale(.51834)"><circle r="207.82491" cy="27453.824" cx="19919.824" fill="#f58c7b"/><path d="M20335.971 27758.96a207.82491 207.82491 0 1 0-359.963 207.825l347.163 601.303a207.82491 207.82491 0 0 0 359.962-207.825z" fill="#f58c7b"/><path d="M21030.295 27758.96a207.82491 207.82491 0 0 0-359.962 207.825l347.162 601.303a207.82491 207.82491 0 0 0 359.962-207.825z" fill="#96c2d9"/><path d="M21017.495 28360.263a207.82491 207.82491 0 0 0 359.962 207.825l236.164-409.051a207.82491 207.82491 0 0 0-359.962-207.825z" fill="#96c2d9"/><path d="M20443.156 28152.439a207.8249 207.8249 0 0 1-359.962 0l239.977 415.649a207.8249 207.8249 0 0 0 359.962 0l250.363-433.641a207.8249 207.8249 0 0 1 263.98-85.921l-167.181-289.566a207.8249 207.8249 0 0 0-359.962 0z" fill="#2d4a5c"/></g><g transform="translate(-10217.557 -13992.323) scale(.51834)"><circle cx="19919.824" cy="27453.824" r="207.82491" fill="#e29bb5"/><path d="M20335.971 27758.96a207.82491 207.82491 0 1 0-359.963 207.825l347.163 601.303a207.82491 207.82491 0 0 0 359.962-207.825z" fill="#e29bb5"/><path d="M21030.295 27758.96a207.82491 207.82491 0 0 0-359.962 207.825l347.162 601.303a207.82491 207.82491 0 0 0 359.962-207.825z" fill="#70c5a0"/><path d="M21017.495 28360.263a207.82491 207.82491 0 0 0 359.962 207.825l236.164-409.051a207.82491 207.82491 0 0 0-359.962-207.825z" fill="#70c5a0"/><path d="M20443.156 28152.439a207.8249 207.8249 0 0 1-359.962 0l239.977 415.649a207.8249 207.8249 0 0 0 359.962 0l250.363-433.641a207.8249 207.8249 0 0 1 263.98-85.921l-167.181-289.566a207.8249 207.8249 0 0 0-359.962 0z" fill="#2d4a5c"/></g></svg>