<?xml version="1.0" encoding="UTF-8"?>
<svg version="1.1" viewBox="0 0 1000 23000" xml:space="preserve" xmlns="http://www.w3.org/2000/svg"><g transform="matrix(.51834 0 0 .51834 -10218 -11992)"><g><circle cx="19920" cy="27454" r="207.82" fill="#f58c7b"/><path d="m20336 27759a207.82 207.82 0 1 0-359.96 207.82l347.16 601.3a207.82 207.82 0 0 0 359.96-207.82z" fill="#f58c7b"/><path d="m21030 27759a207.82 207.82 0 0 0-359.96 207.82l347.16 601.3a207.82 207.82 0 0 0 359.96-207.82z" fill="#96c2d9"/><path d="m21017 28360a207.82 207.82 0 0 0 359.96 207.82l236.16-409.05a207.82 207.82 0 0 0-359.96-207.82z" fill="#96c2d9"/></g><path d="m20443 28152a207.82 207.82 0 0 1-359.96 0l239.98 415.65a207.82 207.82 0 0 0 359.96 0l250.36-433.64a207.82 207.82 0 0 1 263.98-85.921l-167.18-289.57a207.82 207.82 0 0 0-359.96 0z" fill="#2d4a5c"/></g><g transform="matrix(.51834 0 0 .51834 -10218 -13992)"><circle cx="19920" cy="27454" r="207.82" fill="#e29bb5"/><path d="m20336 27759a207.82 207.82 0 1 0-359.96 207.82l347.16 601.3a207.82 207.82 0 0 0 359.96-207.82z" fill="#e29bb5"/><path d="m21030 27759a207.82 207.82 0 0 0-359.96 207.82l347.16 601.3a207.82 207.82 0 0 0 359.96-207.82z" fill="#70c5a0"/><path d="m21017 28360a207.82 207.82 0 0 0 359.96 207.82l236.16-409.05a207.82 207.82 0 0 0-359.96-207.82z" fill="#70c5a0"/><path d="m20443 28152a207.82 207.82 0 0 1-359.96 0l239.98 415.65a207.82 207.82 0 0 0 359.96 0l250.36-433.64a207.82 207.82 0 0 1 263.98-85.921l-167.18-289.57a207.82 207.82 0 0 0-359.96 0z" fill="#2d4a5c"/></g><g><path d="m915.37 4499.2c0 25.981-21.651 46.333-46.188 46.333h-46.188l1.0104 231.23c0 3.8972-0.2887 7.7943-0.7217 11.691v23.383c0 31.899-25.837 57.735-57.735 57.735h-23.094c-1.5877 0-3.1754 0-4.7632-0.1443-2.0207 0.1443-4.0415 0.1443-6.0622 0.1443l-46.91-0.1443h-34.641c-31.899 0-57.735-25.837-57.735-57.735v-127.02c0-25.548-20.64-46.188-46.188-46.188h-92.376c-25.548 0-46.188 20.64-46.188 46.188v127.02c0 31.899-25.837 57.735-57.735 57.735h-80.685c-2.1651 0-4.3302-0.1444-6.4952-0.2887-1.7321 0.1443-3.4641 0.2887-5.1962 0.2887h-23.094c-31.899 0-57.735-25.837-57.735-57.735v-161.66c0-1.2991 0-2.7425 0.14434-4.0415v-100.6h-46.188c-25.981 0-46.188-20.207-46.188-46.333 0-12.99 4.3302-24.538 14.434-34.641l369.94-322.45c10.104-10.104 21.651-11.547 31.754-11.547 10.104 0 21.651 2.8868 30.311 10.104l368.64 324.04c11.547 10.104 17.321 21.651 15.877 34.641z" fill="#054a5c" stroke-width="1.4434"/><path d="m915.37 6499.2c0 25.981-21.651 46.333-46.188 46.333h-46.188l1.0104 231.23c0 3.8972-0.2887 7.7943-0.7217 11.691v23.383c0 31.899-25.837 57.735-57.735 57.735h-23.094c-1.5878 0-3.1755 0-4.7632-0.1443-2.0207 0.1443-4.0415 0.1443-6.0622 0.1443l-46.91-0.1443h-34.641c-31.899 0-57.735-25.837-57.735-57.735v-127.02c0-25.548-20.64-46.188-46.188-46.188h-92.376c-25.548 0-46.188 20.64-46.188 46.188v127.02c0 31.899-25.836 57.735-57.735 57.735h-80.685c-2.1651 0-4.3302-0.1444-6.4953-0.2887-1.732 0.1443-3.4641 0.2887-5.1961 0.2887h-23.094c-31.899 0-57.735-25.837-57.735-57.735v-161.66c0-1.2991 0-2.7425 0.1443-4.0415v-100.6h-46.188c-25.981 0-46.188-20.207-46.188-46.333 0-12.99 4.3301-24.538 14.434-34.641l369.94-322.45c10.104-10.104 21.651-11.547 31.754-11.547s21.651 2.8868 30.311 10.104l368.64 324.04c11.547 10.104 17.321 21.651 15.877 34.641z" fill="#4fc5a0" stroke-width="1.4434"/><path d="m500 8500a184.79 184.79 0 1 0 0-369.58 184.79 184.79 0 1 0 0 369.58zm-65.975 69.296c-142.2 0-257.41 115.2-257.41 257.41 0 23.676 19.201 42.877 42.877 42.877h561.01c23.676 0 42.877-19.201 42.877-42.877 0-142.2-115.2-257.41-257.41-257.41z" fill="#2d4a5c" stroke-width="1.4437"/><path d="m500 10500a184.79 184.79 0 1 0 0-369.58 184.79 184.79 0 1 0 0 369.58zm-65.975 69.296c-142.2 0-257.41 115.2-257.41 257.4 0 23.676 19.201 42.877 42.877 42.877h561.01c23.676 0 42.877-19.201 42.877-42.877 0-142.2-115.2-257.4-257.41-257.4z" fill="#4fc5a0" stroke-width="1.4437"/><path d="m368.04 12342c0-58.228 47.342-105.57 105.57-105.57h52.785c58.228 0 105.57 47.342 105.57 105.57v5.939c0 35.959-18.31 69.445-48.496 88.744l-69.61 44.703c-41.568 26.722-66.641 72.744-66.641 122.06v2.31c0 29.196 23.588 52.785 52.785 52.785 29.197 0 52.785-23.589 52.785-52.785v-2.31c0-13.526 6.9281-26.062 18.145-33.32l69.61-44.703c60.373-38.929 96.993-105.74 96.993-177.65v-5.939c0-116.62-94.518-211.14-211.14-211.14h-52.785c-116.62 0.165-211.14 94.683-211.14 211.3 0 29.197 23.588 52.785 52.785 52.785 29.197 0 52.785-23.588 52.785-52.785zm131.96 527.85a65.982 65.982 0 1 0 0-131.96 65.982 65.982 0 1 0 0 131.96z" fill="#2d4a5c" stroke-width="1.6495"/><path d="m368.04 14342c0-58.228 47.342-105.57 105.57-105.57h52.785c58.228 0 105.57 47.342 105.57 105.57v5.939c0 35.959-18.31 69.445-48.496 88.744l-69.61 44.703c-41.568 26.722-66.641 72.744-66.641 122.06v2.31c0 29.196 23.588 52.785 52.785 52.785 29.197 0 52.785-23.589 52.785-52.785v-2.31c0-13.526 6.9281-26.062 18.145-33.32l69.61-44.703c60.373-38.929 96.993-105.74 96.993-177.65v-5.939c0-116.62-94.518-211.14-211.14-211.14h-52.785c-116.62 0.165-211.14 94.683-211.14 211.3 0 29.197 23.588 52.785 52.785 52.785 29.197 0 52.785-23.588 52.785-52.785zm131.96 527.85a65.982 65.982 0 1 0 0-131.96 65.982 65.982 0 1 0 0 131.96z" fill="#70c5a0" stroke-width="1.6495"/><g stroke-width="1.4437"><path d="m500 16130a369.58 369.58 0 1 1 0 739.16 369.58 369.58 0 1 1 0-739.16zm-34.648 173.24v196.34c0 11.549 5.7746 22.377 15.447 28.873l138.59 92.395c15.88 10.683 37.391 6.352 48.074-9.673 10.683-16.024 6.3522-37.391-9.6725-48.074l-123.14-82v-177.86c0-19.201-15.447-34.648-34.648-34.648s-34.648 15.447-34.648 34.648z" fill="#2d4a5c"/><path d="m500 18130a369.58 369.58 0 1 1 0 739.16 369.58 369.58 0 1 1 0-739.16zm-34.648 173.24v196.34c0 11.549 5.7746 22.377 15.447 28.873l138.59 92.395c15.88 10.683 37.391 6.352 48.074-9.673 10.683-16.024 6.3522-37.391-9.6725-48.074l-123.14-82v-177.86c0-19.201-15.447-34.648-34.648-34.648s-34.648 15.447-34.648 34.648z" fill="#70c5a0"/><path d="m407.61 20177c0 25.553 20.644 46.198 46.197 46.198 178.58 0 323.38 144.8 323.38 323.38 0 25.553 20.644 46.197 46.197 46.197s46.197-20.644 46.197-46.197c0-229.69-186.09-415.78-415.78-415.78-25.553 0-46.197 20.644-46.197 46.197zm0 138.59c0 25.553 20.644 46.197 46.197 46.197 102.07 0 184.79 82.722 184.79 184.79 0 25.553 20.644 46.197 46.197 46.197s46.197-20.644 46.197-46.197c0-153.03-124.16-277.18-277.18-277.18-25.553 0-46.197 20.644-46.197 46.197zm-138.59 23.099c0-38.257-31.039-69.296-69.296-69.296s-69.296 31.039-69.296 69.296v323.38c0 114.77 93.116 207.89 207.89 207.89s207.89-93.116 207.89-207.89c0-114.77-93.116-207.89-207.89-207.89h-23.099v138.59h23.099c38.257 0 69.296 31.039 69.296 69.296s-31.039 69.296-69.296 69.296-69.296-31.039-69.296-69.296z" fill="#2d4a5c"/><path d="m407.61 22177c0 25.553 20.644 46.198 46.197 46.198 178.58 0 323.38 144.8 323.38 323.38 0 25.553 20.644 46.197 46.197 46.197s46.197-20.644 46.197-46.197c0-229.69-186.09-415.78-415.78-415.78-25.553 0-46.197 20.644-46.197 46.197zm0 138.59c0 25.553 20.644 46.197 46.197 46.197 102.07 0 184.79 82.722 184.79 184.79 0 25.553 20.644 46.197 46.197 46.197s46.197-20.644 46.197-46.197c0-153.03-124.16-277.18-277.18-277.18-25.553 0-46.197 20.644-46.197 46.197zm-138.59 23.099c0-38.257-31.039-69.296-69.296-69.296s-69.296 31.039-69.296 69.296v323.38c0 114.77 93.116 207.89 207.89 207.89s207.89-93.116 207.89-207.89c0-114.77-93.116-207.89-207.89-207.89h-23.099v138.59h23.099c38.257 0 69.296 31.039 69.296 69.296s-31.039 69.296-69.296 69.296-69.296-31.039-69.296-69.296z" fill="#70c5a0"/></g></g></svg>
