<?xml version="1.0" encoding="UTF-8" standalone="no"?>
<svg
   xmlns:dc="http://purl.org/dc/elements/1.1/"
   xmlns:cc="http://creativecommons.org/ns#"
   xmlns:rdf="http://www.w3.org/1999/02/22-rdf-syntax-ns#"
   xmlns:svg="http://www.w3.org/2000/svg"
   xmlns="http://www.w3.org/2000/svg"
   width="100%"
   height="100%"
   version="1.1" >
  <style>
    .head, .torso {
      fill: #e29bb5;
    }
    .shorts {
      fill: #2d4a5c;
    }
    .socks {
        fill: #70c5a0;
    }
  </style>
  <g id="wild_about_pilates_logo" transform="translate(-214.78976440429688,0)">
    <g id="head_torso" transform="rotate(60,582,516)">
        <circle
            r="88"
            cx="88"
            cy="516"
            id="head"
            class="head"
        />
        <g id="torso">
            <path
                d="m 288,428 a 88,88 0 0 0 -88,88 88,88 0 0 0 88,88 l 294,0 a 88,88 0 0 0 88,-88 88,88 0 0 0 -88,-88 l -294,0 z"
                class="torso"
            />
            <path
                d="m 429.58008,428 25.40234,44 -0.0937,0.0547 A 88,88 0 0 1 466.77344,516 a 88,88 0 0 1 -88,88 L 582,604 a 88,88 0 0 0 88,-88 88,88 0 0 0 -88,-88 l -152.41992,0 z"
                class="shorts"
            />
        </g>
    </g>
    <g id="lower_legs" transform="rotate(60,729,261.3885192871094) translate(-147,-254.61148071289062)">
        <path
            d="m 876,428 a 88,88 0 0 0 -88,88 88,88 0 0 0 88,88 l 294,0 a 88,88 0 0 0 88,-88 88,88 0 0 0 -88,-88 l -294,0 z"
            class="socks"
        />
        <path
            d="m 876,428 a 88,88 0 0 0 -88,88 88,88 0 0 0 88,88 l 152.4199,0 -35.17185,-60.91992 0.0937,-0.0547 a 88,88 0 0 1 -11.88282,-43.94531 88,88 0 0 1 36.18167,-70.9961 L 1017.5801,428 876,428 Z"
            class="shorts"
        />
    </g>
    <g id="upper_legs" transform="rotate(-60,582,516)">
        <path
            d="m 582,428 a 88,88 0 0 0 -88,88 88,88 0 0 0 88,88 l 294,0 a 88,88 0 0 0 88,-88 88,88 0 0 0 -88,-88 l -294,0 z"
            class="shorts"
        />
    </g>
    <g id="feet" transform="rotate(-60,876,516) translate(-294,0)">
        <path
            d="m 1170,428 a 88,88 0 0 0 -88,88 88,88 0 0 0 88,88 l 200,0 a 88,88 0 0 0 88,-88 88,88 0 0 0 -88,-88 l -200,0 z"
            class="socks"
        />
    </g>
  </g>
</svg>
